<svg width="900" height="400" viewBox="0 0 900 400" fill="none" xmlns="http://www.w3.org/2000/svg">
<path d="M667.582 182.367H603.117V149.916C603.206 134.451 603.25 113.353 603.25 86.6242C603.25 74.824 603.206 61.6829 603.117 47.2008V2.81596H667.582V74.7396C669.224 68.3902 671.118 61.0879 673.262 52.8327C678.017 34.7748 682.509 17.1639 686.736 0L751.465 12.7389C747.325 27.0421 743.098 40.9431 738.783 54.4418C734.556 67.8511 731.562 79.8301 729.8 90.3788V91.0493C730.681 93.7311 734.644 104.816 741.689 124.304C748.735 143.703 754.811 159.169 759.919 170.701L693.869 186.255C687.705 169.985 681.32 151.838 674.715 131.814C671.84 122.98 669.463 115.556 667.582 109.541V141.2C667.67 158.811 667.67 172.533 667.582 182.367Z" fill="white"/>
<path d="M600.987 173.248L536.523 184.378C534.057 171.237 531.107 157.694 527.672 143.748C524.326 129.802 520.583 117.198 516.444 105.934L517.501 102.984C519.35 102.805 520.759 101.777 521.728 99.8995C522.785 98.0222 523.665 95.9214 524.37 93.5971C525.251 89.7531 525.823 86.5796 526.087 84.0765C526.44 81.5734 526.616 78.4446 526.616 74.69C526.616 70.3096 526.307 66.2868 525.691 62.6216C525.163 58.867 524.414 55.47 523.445 52.4305C522.741 51.0002 521.86 49.9721 520.803 49.3464C519.747 48.7206 518.426 48.4077 516.84 48.4077H514.595C514.595 54.0396 514.551 59.8056 514.463 65.7057V152.33C514.551 164.756 514.595 174.768 514.595 182.367H450.923V155.816C451.011 144.553 451.055 121.444 451.055 86.4902C451.055 70.6672 451.011 54.3525 450.923 37.5462V2.81604C455.767 2.72664 460.566 2.63725 465.322 2.54785C470.077 2.45846 475.493 2.41376 481.57 2.41376C500.944 2.41376 515.828 2.90544 526.219 3.88879C536.699 4.78274 545.946 6.57065 553.96 9.25251C566.025 13.1859 575.448 19.8459 582.229 29.2324C589.01 38.5295 592.401 47.9607 592.401 57.5261C592.401 66.6444 591.124 74.8688 588.57 82.1992C586.104 89.5296 582.582 95.2956 578.002 99.4972V100.57C580.644 108.526 583.991 119.477 588.042 133.423C592.093 147.368 596.408 160.644 600.987 173.248Z" fill="white"/>
<path d="M324.127 2.14544L324.127 50.9139L278.435 35.8436L260.147 92.9771L305.839 108.047L277.6 147.502L325.478 182.812L353.717 143.358L381.956 182.812L429.834 147.502L401.595 108.047L447.287 92.9771L428.999 35.8436L383.307 50.9139L383.307 2.14549L324.127 2.14544Z" fill="white"/>
<path d="M258.07 54.1737H206.419C206.419 57.1238 206.375 60.9678 206.287 65.7057V79.2491H256.749V117.6H208.533C208.533 123.5 208.577 133.736 208.665 148.307C208.753 162.879 208.753 174.232 208.665 182.367H143.804V145.625C143.892 126.763 143.936 109.152 143.936 92.7925C143.936 81.0817 143.892 66.9573 143.804 50.4191V2.81604H258.07V54.1737Z" fill="white"/>
<path d="M900 343.547C900 354.006 897.358 362.722 892.074 369.695C886.79 376.668 879.789 382.523 871.07 387.261C863.409 391.552 853.105 394.726 840.159 396.782C827.302 398.748 816.073 399.776 806.474 399.866C796.611 399.866 789.257 399.776 784.413 399.598C779.658 399.419 775.387 399.151 771.6 398.793V346.503C772.796 346.548 774.117 346.591 775.563 346.631C782.08 346.72 786.307 346.765 788.244 346.765C792.031 346.765 795.466 346.586 798.548 346.229C801.63 345.782 804.581 345.2 807.399 344.485C810.745 343.591 813.035 342.519 814.268 341.267C815.589 339.926 816.249 338.183 816.249 336.037C816.249 334.16 815.325 332.193 813.475 330.137C811.626 327.992 809.336 325.98 806.606 324.103C803.348 321.511 800.133 319.231 796.963 317.264C793.881 315.298 790.754 312.884 787.584 310.023C781.067 304.123 776.179 298.178 772.921 292.189C769.662 286.199 768.033 278.914 768.033 270.332C768.033 265.594 768.738 261.079 770.147 256.788C771.644 252.408 773.934 248.34 777.016 244.586C784.237 235.468 795.378 228.316 810.437 223.131C825.584 217.946 843.197 215.309 863.277 215.219C872.876 215.13 879.084 215.13 881.902 215.219C889.14 215.219 893.438 215.566 897.886 216.509V268.186C894.628 268.097 892.118 268.052 890.357 268.052C888.683 267.963 886.174 268.007 882.827 268.186C878.248 268.365 874.505 268.633 871.599 268.991C868.693 269.259 865.258 269.885 861.295 270.868C858.917 271.405 856.76 272.298 854.822 273.55C852.885 274.802 851.916 276.321 851.916 278.109C851.916 280.433 852.841 282.534 854.69 284.412C856.539 286.289 858.829 288.121 861.559 289.909C865.17 292.234 868.428 294.379 871.335 296.346C874.329 298.223 877.719 300.592 881.506 303.453C887.319 307.833 891.854 313.286 895.112 319.812C898.371 326.338 900 334.249 900 343.547Z" fill="white"/>
<path d="M767.128 396.916V348.24C761.932 348.24 756.649 348.285 751.276 348.374H723.668C717.503 348.285 712.483 348.24 708.608 348.24V323.701H763.297V289.373H708.608V265.907H765.675V217.365H647.314V396.916H767.128Z" fill="white"/>
<path d="M644.101 396.916H579.373V361.917C579.461 346.72 579.505 326.562 579.505 301.441C579.505 289.641 579.461 276.455 579.373 261.884V217.365H644.101C644.101 230.685 644.057 244.854 643.969 259.873V352.665C644.057 369.382 644.101 384.132 644.101 396.916Z" fill="white"/>
<path fill-rule="evenodd" clip-rule="evenodd" d="M570.076 347.435C575.184 335.546 577.738 322.36 577.738 307.878C577.738 292.234 575.404 278.69 570.736 267.248C566.157 255.716 559.244 245.793 549.997 237.479C542.159 230.685 532.736 225.589 521.728 222.192C510.807 218.706 497.774 216.963 482.626 216.963C472.763 216.963 462.767 217.052 452.64 217.231C442.6 217.41 436.348 217.499 433.882 217.499V261.884C433.97 278.959 434.014 293.619 434.014 305.867C434.014 324.371 433.97 342.116 433.882 359.102V396.916C436.083 396.916 442.997 397.05 454.621 397.318C466.246 397.586 476.33 397.72 484.872 397.72C499.755 397.72 512.349 395.843 522.652 392.088C533.044 388.244 541.851 383.194 549.072 376.936C558.055 369.069 565.056 359.236 570.076 347.435ZM509.707 280.523C510.499 289.284 510.896 297.285 510.896 304.526C510.896 311.498 510.499 319.097 509.707 327.321C509.002 335.456 507.637 341.804 505.612 346.363C504.555 347.525 503.102 348.464 501.252 349.179C499.491 349.804 497.774 350.117 496.1 350.117H494.912V260.409H496.365C498.39 260.409 500.196 260.767 501.781 261.482C503.366 262.197 504.819 263.314 506.14 264.834C507.725 266.533 508.914 271.762 509.707 280.523Z" fill="white"/>
<path fill-rule="evenodd" clip-rule="evenodd" d="M433.903 307.878C433.903 322.36 431.35 335.546 426.242 347.435C421.222 359.236 414.221 369.069 405.238 376.936C398.017 383.194 389.21 388.244 378.818 392.088C368.514 395.843 355.921 397.72 341.038 397.72C332.495 397.72 322.412 397.586 310.787 397.318C299.162 397.05 292.249 396.916 290.048 396.916V359.102C290.136 342.116 290.18 324.371 290.18 305.867C290.18 293.619 290.136 278.959 290.048 261.884V217.499C292.513 217.499 298.766 217.41 308.806 217.231C318.933 217.052 328.929 216.963 338.792 216.963C353.939 216.963 366.973 218.706 377.893 222.192C388.902 225.589 398.325 230.685 406.163 237.479C415.41 245.793 422.323 255.716 426.902 267.248C431.57 278.69 433.903 292.234 433.903 307.878ZM367.061 304.526C367.061 297.285 366.665 289.284 365.872 280.523C365.08 271.762 363.891 266.533 362.306 264.834C360.985 263.314 359.532 262.197 357.946 261.482C356.361 260.767 354.556 260.409 352.53 260.409H351.077V350.117H352.266C353.939 350.117 355.657 349.804 357.418 349.179C359.267 348.464 360.721 347.525 361.777 346.363C363.803 341.804 365.168 335.456 365.872 327.321C366.665 319.097 367.061 311.498 367.061 304.526Z" fill="white"/>
<path d="M285.568 217.365H221.764V253.57C221.852 261.973 221.896 269.483 221.896 276.098C221.896 283.16 221.852 290.759 221.764 298.894V322.896C221.764 332.283 221.148 338.675 219.915 342.072C218.682 345.469 216.656 347.167 213.838 347.167C211.196 347.167 209.171 345.469 207.761 342.072C206.352 338.675 205.648 332.238 205.648 322.762V252.497C205.736 243.379 205.736 231.668 205.648 217.365H141.844V325.176C141.844 338.049 143.341 349.045 146.335 358.163C149.33 367.281 154.526 375.103 161.923 381.629C168 386.993 175.177 391.418 183.455 394.904C191.822 398.302 201.949 400 213.838 400C223.966 400 232.904 398.659 240.654 395.977C248.492 393.206 256.374 388.736 264.3 382.568C270.905 377.294 276.145 369.74 280.02 359.906C283.895 349.983 285.832 338.809 285.832 326.383C285.832 321.555 285.788 314.672 285.7 305.732C285.612 296.704 285.568 287.138 285.568 277.037V217.365Z" fill="white"/>
<path fill-rule="evenodd" clip-rule="evenodd" d="M140.421 342.876C140.421 354.229 136.987 364.376 130.118 373.315C123.248 382.165 113.869 388.289 101.98 391.686C93.2619 394.189 83.0903 395.798 71.4656 396.513C59.9289 397.229 47.1153 397.586 33.0248 397.586C28.9737 397.586 24.4383 397.497 19.4186 397.318C14.4869 397.139 8.05804 397.005 0.132099 396.916V300.637C0.132099 278.824 0.088066 260.185 0 244.72V217.365C2.81811 217.186 7.26545 217.007 13.342 216.829C19.5066 216.65 26.1116 216.56 33.1569 216.56C51.4746 216.56 65.2569 216.829 74.5039 217.365C83.7508 217.901 91.8969 219.198 98.9422 221.254C108.806 224.382 116.643 229.702 122.456 237.211C128.268 244.631 131.174 252.9 131.174 262.018C131.174 270.242 129.721 277.662 126.815 284.277C123.909 290.893 119.109 295.854 112.416 299.162V299.832C115.234 300.905 117.788 302.201 120.078 303.721C122.368 305.151 124.569 306.894 126.683 308.951C131.615 313.242 135.137 318.337 137.251 324.237C139.364 330.048 140.421 336.261 140.421 342.876ZM77.0137 332.685C77.0137 329.109 76.7936 326.115 76.3532 323.701C76.001 321.198 75.5166 319.186 74.9002 317.667C74.3718 316.504 73.5792 315.611 72.5224 314.985C71.5536 314.359 70.3207 314.046 68.8236 314.046C68.1191 314.046 67.5026 314.091 66.9742 314.18C66.6466 314.18 63.5031 314.894 61.1619 315.437V331.612C61.2499 343.859 61.2939 350.654 61.2939 351.994C61.7343 352.084 62.3067 352.173 63.0112 352.263C63.8038 352.352 64.8166 352.397 66.0495 352.397C68.075 352.397 69.7483 352.039 71.0693 351.324C72.4783 350.609 73.4911 349.67 74.1075 348.508C75.0763 346.899 75.7808 344.753 76.2211 342.072C76.7495 339.39 77.0137 336.261 77.0137 332.685ZM61.1619 274.355V296.041C63.9532 295.888 67.1106 295.632 67.7668 295.273C68.9997 294.647 69.8804 293.306 70.4088 291.25C71.0252 289.462 71.5096 287.406 71.8619 285.082C72.3022 282.758 72.5224 279.539 72.5224 275.427C72.5224 272.835 72.3022 270.153 71.8619 267.382C71.4215 264.61 70.8051 262.51 70.0125 261.079C69.396 259.828 68.5154 258.979 67.3705 258.532C66.3137 257.995 65.2129 257.727 64.068 257.727H62.6149C61.9985 257.727 61.5581 257.772 61.2939 257.861C61.2939 262.063 61.2499 267.56 61.1619 274.355Z" fill="white"/>
</svg>
